<?xml version="1.0" encoding="UTF-8"?>
<!DOCTYPE svg PUBLIC "-//W3C//DTD SVG 1.1//EN" "http://www.w3.org/Graphics/SVG/1.1/DTD/svg11.dtd">
<!-- Creator: CorelDRAW -->
<svg xmlns="http://www.w3.org/2000/svg" xml:space="preserve" width="382.769mm" height="302.395mm" version="1.1" style="shape-rendering:geometricPrecision; text-rendering:geometricPrecision; image-rendering:optimizeQuality; fill-rule:evenodd; clip-rule:evenodd"
viewBox="0 0 6178.48 4881.12"
 xmlns:xlink="http://www.w3.org/1999/xlink"
 xmlns:xodm="http://www.corel.com/coreldraw/odm/2003">
 <defs>
  <style type="text/css">
   <![CDATA[
    .fil0 {fill:white}
   ]]>
  </style>
 </defs>
 <g id="Camada_x0020_1">
  <metadata id="CorelCorpID_0Corel-Layer"/>
  <g id="_2413181204432">
   <path class="fil0" d="M4475.77 1105.76c0,-356.27 535.27,-380.29 535.27,11.39 0,253.54 -315.55,331.55 -462.87,178.15 -41.06,-42.75 -72.4,-107.54 -72.4,-189.54zm-432.77 -22.78c0,231.78 75.47,419.66 249.64,558.96 195.47,156.33 506.45,187 738.87,93.58 58.35,-23.45 115.08,-55.75 162.54,-93.71 16.65,-13.32 30.85,-23.64 46.28,-39.14 148.92,-149.64 203.49,-299.65 203.49,-525.39 0,-190.13 -78.19,-347.6 -200.72,-471.22 -219.76,-221.73 -639.23,-251.28 -904.08,-75.53 -97.24,64.53 -188.95,161.83 -234.2,272.6 -37.28,91.27 -61.82,175.3 -61.82,279.85z"/>
   <path class="fil0" d="M5477.98 2893.79c-153.84,0 -267.64,-112.56 -267.64,-256.25l0 -34.17c0,-135.65 114.9,-250.55 250.55,-250.55l34.17 0c325.39,0 346.95,540.97 -17.08,540.97zm-700.41 -301.8c0,133.11 9.56,221.72 64.5,339.8 36.28,77.97 84.58,137.53 141.81,194.16l93.64 71.49c278.26,164.75 626.5,151.78 874.85,-57.03 11.29,-9.49 14,-9.77 25.37,-20.19l59.23 -66.04c28.21,-35.35 60.51,-93.84 80.77,-135.62 38.78,-79.98 60.64,-192.71 60.64,-303.8 0,-390.79 -304.74,-677.63 -677.63,-677.63 -314.21,0 -535.4,129.02 -660.64,381.43 -31.5,63.48 -62.54,178.01 -62.54,273.42z"/>
   <path class="fil0" d="M4640.91 4197.8c0,-157 108.12,-273.33 256.25,-273.33l28.47 0c137.55,0 250.55,113.29 250.55,250.55l0 39.86c0,332.61 -535.27,340.75 -535.27,-17.08zm-432.77 -5.69c0,168.23 52.99,333.78 157.97,451.33 16.72,18.72 23.5,30.86 42.67,48.44 59.32,54.39 137.58,104.81 212.55,134.81 180.67,72.3 388.94,71.99 571.19,2.45 38.66,-14.75 75.47,-33.44 110.06,-55.08 177.89,-111.27 306.38,-321.29 306.38,-536.39 0,-178.81 -20.98,-311.21 -125.23,-455.6 -213.38,-295.55 -682.53,-357.94 -982.66,-156.88 -176.02,117.92 -292.93,313.26 -292.93,566.92z"/>
   <path class="fil0" d="M1469.15 2603.38l-74.03 0 0 -284.72c121.99,0 227.77,-11.52 227.77,153.75 0,88.09 -65.18,130.97 -153.75,130.97zm-489.71 -609.3l0 1275.54 398.61 0c13.12,0 17.08,-3.96 17.08,-17.08l0 -335.97 148.05 0 63.5 175.66c9.92,26.63 22.53,60.51 32.44,87.14 10.94,29.36 21.75,65.15 35.03,90.25l415.69 0 -199.3 -484.02c94.44,-63.24 153.75,-218.54 153.75,-335.97 0,-356.31 -257.03,-472.63 -609.3,-472.63l-438.47 0c-13.12,0 -17.08,3.96 -17.08,17.08z"/>
   <path class="fil0" d="M3433.71 1145.62l102.5 222.08 -199.3 0c9.37,-40.2 85.83,-174.97 96.81,-222.08zm-706.1 603.6l421.38 0 59.02 -118.55 459.16 -1.03c3.73,15.99 42.36,119.58 68.33,119.58l409.99 0c32.78,0 1.05,-36.55 -18.91,-72.2 -42.32,-75.6 -98.33,-195.2 -135.94,-256.97 -33.14,-54.43 -58.5,-117.01 -90.26,-171.68 -16.06,-27.64 -29.41,-57.63 -45.55,-85.42 -16.06,-27.64 -29.41,-57.63 -45.56,-85.41l-111.76 -207.12c-71.74,-133.21 -155.24,-303.59 -226.04,-428.82 -11.13,-19.7 -13.64,-24.86 -43.47,-24.86 -4.86,20.85 -10.09,25.34 -20.36,42.28l-65.1 122.81c-78.86,159.13 -182.66,337.07 -263.73,499.32 -51.73,103.53 -342.51,630.69 -351.22,668.07z"/>
   <path class="fil0" d="M3598.84 4237.66c13.46,9.86 70.43,137.86 81.37,163.49 10.05,23.55 16.03,38.18 26.83,58.59l-205 0c5.77,-24.78 87.49,-182.09 96.8,-222.08zm-689.02 603.6l392.91 0c21.14,0 66.33,-111 68.33,-119.58l461.24 0c4.65,19.97 45.83,102.98 56.94,119.58l438.47 0 -263.77 -504.97c-8.93,-17.88 -13.63,-23.53 -22.77,-39.87l-45.55 -85.41c-9.12,-16.3 -14.4,-28.46 -22.84,-45.49 -71.49,-144.19 -169.26,-310.11 -244.8,-461.3l-70.33 -128.98c-31.35,-58.24 -19.26,-66.46 -64.51,-66.46 -4.99,21.42 -72.31,142.33 -87.24,169.01 -31.22,55.78 -55.68,114.68 -88.19,168.06 -17.02,27.95 -26.86,52.8 -42.83,82.44 -101.16,187.86 -211.05,404.18 -313.14,586.57l-154.19 290.37c-8.74,16.24 -24.25,36.03 2.26,36.03z"/>
   <path class="fil0" d="M2670.66 4881.12c22.36,0 72.57,-119.69 94.4,-156.15l526.28 -1005.51c20.14,-40.5 76.02,-130.47 85.42,-170.83l-455.55 0c-30.28,57.23 -86.93,198.11 -117.67,263.85l-115.8 271.42c-18.57,-21.36 -159.21,-356.58 -180.32,-400.51 -11.02,-22.94 -20.69,-45.18 -30.28,-66.53 -7.74,-17.22 -24.74,-51.79 -28.57,-68.24l-484.02 0c2.34,28.09 27.72,65.21 39.61,85.67 15.12,26.02 27.55,54.53 41.94,83.33 14.62,29.26 29.19,52.45 43.72,81.55 7.09,14.19 12.77,26.03 20.8,41.84l89.38 166.87c8.86,17.46 13.96,28.15 22.69,45.64 15.42,30.89 29.63,53.2 43.7,81.58l307.5 586.52c12.55,25.3 72.78,159.48 96.76,159.48z"/>
   <path class="fil0" d="M-0 2620.46c0,174.09 72.77,381.48 201.7,481.62 18.78,14.59 25.14,22.57 44.23,35.49 182.66,123.62 364.19,161.04 591.18,137.79 22.32,-2.29 56.9,-0.69 56.9,-22.83l0 -370.13c0,-26.22 -16.35,-11.39 -34.17,-11.39l-91.11 0c-136.46,0 -279.02,-95.52 -279.02,-227.77 0,-94.02 8.88,-153.36 100.11,-213.08 159.75,-104.56 298.49,-19.47 298.49,-65.95l0 -370.13c0,-27.9 -104.23,-28.47 -130.97,-28.47 -112.88,0 -220.34,18.62 -306.89,46.16 -274.96,87.52 -450.46,311.98 -450.46,608.69z"/>
   <path class="fil0" d="M3735.51 1994.08l0 353.05 313.19 0 0 922.49 409.99 0 0 -922.49 313.19 0 0 -353.05c0,-13.12 -3.96,-17.08 -17.08,-17.08l-1002.21 0c-13.12,0 -17.08,3.96 -17.08,17.08z"/>
   <path class="fil0" d="M2027.2 1367.7c-28.87,0 -31.03,-5.69 -62.64,-5.69l0 381.52c61.16,14.25 102.14,17.08 170.83,17.08 429.83,0 497.6,-345.03 645.87,-698 49.6,-118.08 106.02,-255.88 265.23,-218.79l0 -387.22c-36.68,-0.82 -68.02,-11.39 -142.36,-11.39 -145.38,0 -255.14,46.65 -328.86,120.99 -72.11,72.71 -134.36,179.42 -173.13,276.73 -42.01,105.45 -86.87,211.73 -130.84,319.01 -47.07,114.86 -98.28,205.75 -244.11,205.75z"/>
   <path class="fil0" d="M2682.05 2888.09c-52.8,0 -37.23,-3.11 -68.33,-5.69l0 387.22c32.7,0 103.92,11.39 187.91,11.39 136.12,0 254.81,-46.06 323.21,-115.26 137.79,-139.4 161.29,-247.51 238.94,-427.3 36.25,-83.94 92.39,-240.5 139.8,-304.36 35.75,-48.16 81.15,-75.56 146.52,-75.56 20.77,0 13.57,5.11 39.86,5.69l0 -387.22c-102.25,-2.28 -147.63,-33.13 -313.23,17.05 -27.51,8.34 -56.59,21.08 -79.51,34.38 -10.53,6.11 -24.49,15.33 -34.43,22.51 -32.84,23.72 -60.7,53.33 -86.22,84.62 -77,94.39 -143.34,261.21 -188.67,375.07 -39.53,99.29 -82.61,225.1 -146.21,309.34 -29.39,38.93 -91.24,68.13 -159.64,68.13z"/>
   <polygon class="fil0" points="2146.78,3269.62 2556.77,3269.62 2556.77,1976.99 2146.78,1976.99 "/>
   <path class="fil0" d="M3251.49 3150.03l0 244.86c94.61,-50.06 93.01,-51.25 205,-51.25 120.29,0 268.83,147.67 451.6,70.08 91.88,-39 60.89,-56.02 60.89,-280.77 -285.08,190.9 -429.52,-175.75 -717.49,17.08z"/>
   <path class="fil0" d="M3086.35 57.99l0 244.86c101.46,-53.69 91.1,-51.25 205,-51.25 148.95,0 289.06,183.78 512.49,34.17l0 -244.86c-48,25.4 -91.22,56.94 -165.14,56.94 -192.06,0 -327.35,-190.53 -552.35,-39.86z"/>
   <path class="fil0" d="M113.89 997.56c0,39.75 7.05,64.44 13.79,100.1 6.66,35.2 10.43,62.4 16.3,97.59 10.44,62.62 22.31,128.01 33.35,194.42l49.63 292.04c14.52,88.86 9.95,78.9 86.24,78.9 28.6,0 29.05,-54.47 33.36,-80.52l111.96 -651.75c9.03,-49.77 4.09,-42.16 -71.3,-42.16 -21.4,0 -19.11,26.42 -22.08,46.26l-52.77 305.97c-3.26,19.81 -7.14,42.27 -10.56,63.47 -2.2,13.64 -2.29,18.03 -4.42,29.74 -5.28,28.98 6.54,13.11 -12.67,27.19 -7.17,-14.95 -18.85,-95.93 -22.78,-119.58l-52.7 -306.04c-8.41,-53.9 -4.38,-47.01 -78.27,-47.01 -9.32,0 -17.08,3.41 -17.08,11.39z"/>
   <path class="fil0" d="M5329.93 1874.5l205 0c21.24,0 63.76,-73.62 75.69,-89.45l188.96 -262.25c6.44,-9.94 14.21,-18.43 -8.4,-18.43l-341.66 0c-23.05,0 -35.94,65.18 -43.41,87.56 -11.85,35.55 -20.74,63.04 -33.91,97.06l-48.96 145.05c-4.81,13.36 -21.02,40.47 6.69,40.47z"/>
   <path class="fil0" d="M876.93 1122.84c0,262.42 193.61,290.76 193.61,455.55 0,44.03 12.65,108.19 -51.25,108.19 -55.32,0 -37.61,-45.61 -51.25,-74.03 -19.21,-9.22 -56.81,-5.69 -85.42,-5.69 -28.62,119.55 106.1,199.67 206.84,149.9 43.35,-21.42 77.88,-80.35 77.88,-144.2 0,-220.51 -193.61,-284.61 -193.61,-438.47 0,-53.26 -11.52,-113.89 45.55,-113.89 56.48,0 51.21,55.1 56.94,79.72 28.6,0 66.21,3.52 85.41,-5.69 18.45,-18.45 -13.1,-111.13 -68.42,-142.27 -53.7,-30.23 -135.76,-18.98 -174.89,24.24 -27.36,30.23 -41.41,64.37 -41.41,106.64z"/>
   <path class="fil0" d="M1583.03 1008.95l5.69 62.64c105.06,0 79.72,-55.72 79.72,313.19l-0.01 296.11c-0.26,87.37 -9.65,79.71 74.03,79.71 31.07,0 22.97,-42.12 22.8,-74.01 -0.36,-68.51 -4.46,-595.17 2.61,-606.69 15.35,-25.03 77.1,12.51 77.1,-25.4 0,-91.87 37.77,-68.33 -239.16,-68.33 -13.33,0 -22.78,9.45 -22.78,22.78z"/>
   <path class="fil0" d="M620.69 1008.95l0 728.88c0,34.08 96.8,34.08 96.8,0l0 -728.88c0,-34.08 -96.8,-34.08 -96.8,0z"/>
   <path class="fil0" d="M1326.79 1008.95l0 728.88c0,30.33 37.73,22.78 74.03,22.78 13.12,0 17.08,-3.96 17.08,-17.08l0 -740.27c0,-23.78 -19.76,-17.08 -68.33,-17.08 -13.33,0 -22.78,9.45 -22.78,22.78z"/>
   <path class="fil0" d="M5831.03 4362.94c0,-36.59 76.22,-22.78 153.75,-22.78 15.38,0 15.7,2.72 28.47,5.69l5.69 45.56 -187.91 0 0 -28.47zm-45.55 -5.69c0,58.83 -8.22,85.42 17.08,85.42 74.9,0 313.97,7.39 370.13,-5.69 0,-56.42 15.15,-45.55 -108.19,-45.55l0 -17.08c20.71,-4.82 35.9,-11.69 56.23,-17.8 45.3,-13.6 51.96,-2.53 51.96,-44.84 0,-38.03 -74.03,17.08 -119.58,17.08 -12.23,0 -16.85,-34.17 -68.33,-34.17 -72.15,0 -199.3,-18.45 -199.3,62.64z"/>
   <path class="fil0" d="M5870.89 4214.88l222.08 0c109.25,0 116.04,-148.05 5.69,-148.05l-148.05 0c-22.7,0 -17.08,16.13 -17.08,56.94 0,21.56 13.28,17.08 45.55,17.08l0 -22.78c168.24,0 153.75,-11.72 153.75,39.86 -54.59,12.72 -223.53,5.69 -290.41,5.69 -13.33,0 -22.78,-9.45 -22.78,-22.78 0,-26.99 32.74,-22.83 56.94,-28.47 0,-23.47 6.97,-45.56 -17.08,-45.56 -104.65,0 -120.56,148.05 11.39,148.05z"/>
   <path class="fil0" d="M5831.03 3765.03c0,-36.59 76.22,-22.78 153.75,-22.78 15.38,0 15.7,2.72 28.47,5.69l5.69 45.55 -187.91 0 0 -28.47zm-45.55 -5.69l0 79.72 370.13 0c24.65,0 24.65,-45.55 0,-45.55l-91.11 0c0,-122.32 -79.53,-96.8 -216.39,-96.8 -30.58,0 -62.64,32.06 -62.64,62.64z"/>
   <path class="fil0" d="M5785.48 4630.57c0,13.12 3.96,17.08 17.08,17.08 74.9,0 313.97,7.39 370.13,-5.69 0,-129.94 13.22,-119.58 -45.56,-119.58l0 74.03 -165.14 0c0,-64.11 7.1,-56.94 -45.55,-56.94l0 56.94 -85.42 0c0,-83.66 8.8,-74.03 -45.55,-74.03l0 108.19z"/>
   <path class="fil0" d="M5785.48 3594.2c0,13.12 3.96,17.08 17.08,17.08 74.9,0 313.97,7.39 370.13,-5.69 0,-129.94 13.22,-119.58 -45.56,-119.58l0 74.03 -165.14 0c0,-64.11 7.1,-56.94 -45.55,-56.94l0 56.94 -85.42 0c0,-83.66 8.8,-74.03 -45.55,-74.03l0 108.19z"/>
   <path class="fil0" d="M5848.12 4869.73c159.44,0 137.48,-125.41 284.72,-91.11l0 34.17c-11.23,5.39 -26.29,8.23 -39.86,11.39 0,16.37 -4.42,45.55 11.39,45.55 68.5,0 98.44,-82.7 51.1,-125.13 -92.48,-82.89 -210.28,73.88 -267.49,73.88 -32.64,0 -68.33,6.99 -68.33,-22.78 0,-43.15 39.86,7.49 39.86,-56.94 0,-35.07 -71.24,-6.6 -81.5,44 -7.98,39.38 25.99,86.97 70.11,86.97z"/>
   <path class="fil0" d="M5785.48 3981.41l370.13 0c24.65,0 24.65,-45.56 0,-45.56l-370.13 0 0 45.56z"/>
  </g>
 </g>
</svg>
